<svg width="89" height="90" viewBox="0 0 89 90" fill="none" xmlns="http://www.w3.org/2000/svg">
<path d="M53.0032 9.99658C44.0032 11.9966 41.9032 18.1666 39.8232 23.3366L41.7132 23.9966L42.6632 21.6966C43.1432 21.8666 43.6432 21.9966 44.0032 21.9966C55.0032 21.9966 58.0032 4.99658 58.0032 4.99658C57.0032 6.99658 50.0032 7.24658 45.0032 8.24658C40.0032 9.24658 38.0032 13.4966 38.0032 15.4966C38.0032 17.4966 39.7532 19.2466 39.7532 19.2466C43.0032 9.99658 53.0032 9.99658 53.0032 9.99658Z" fill="white"/>
<path d="M34.11 57.8148H50.0691C50.3351 57.8148 50.5528 57.5974 50.5528 57.3317V52.2589C50.5528 51.9932 50.3351 51.7757 50.0691 51.7757H47.6511C47.3851 51.7757 47.1675 51.9932 47.1675 52.2589V54.4329H37.0117V52.2589C37.0117 51.9932 36.7941 51.7757 36.5281 51.7757H34.11C33.844 51.7757 33.6264 51.9932 33.6264 52.2589V57.3317C33.6264 57.5974 33.844 57.8148 34.11 57.8148ZM54.6634 50.3868C54.6634 51.0274 54.9182 51.6419 55.3717 52.0949C55.8251 52.5479 56.4402 52.8024 57.0815 52.8024C57.7228 52.8024 58.3378 52.5479 58.7913 52.0949C59.2448 51.6419 59.4995 51.0274 59.4995 50.3868C59.4995 49.7461 59.2448 49.1317 58.7913 48.6786C58.3378 48.2256 57.7228 47.9711 57.0815 47.9711C56.4402 47.9711 55.8251 48.2256 55.3717 48.6786C54.9182 49.1317 54.6634 49.7461 54.6634 50.3868ZM69.1113 40.2652L67.6786 37.7651C67.6142 37.6549 67.5087 37.5746 67.3853 37.5418C67.2618 37.5089 67.1304 37.5263 67.0197 37.5899L63.9548 39.3775L59.2215 26.321C58.9716 25.5419 58.4803 24.8623 57.8186 24.3804C57.1568 23.8984 56.3589 23.639 55.54 23.6396H29.3465C27.2488 23.6396 25.3869 24.9924 24.7401 26.9913L20.2304 39.3835L17.1595 37.596C17.0488 37.5323 16.9173 37.515 16.7939 37.5478C16.6704 37.5806 16.565 37.6609 16.5006 37.7711L15.0679 40.2652C14.9349 40.4947 15.0135 40.7846 15.2432 40.9175L18.8944 43.0432L18.0179 45.4589C17.9454 45.6521 17.9091 45.8574 17.9091 46.0628V67.0909C17.9091 68.039 18.6224 68.806 19.499 68.806H23.5855C24.329 68.806 24.9758 68.2443 25.133 67.4593L25.5985 65.1825H58.5807L59.0462 67.4593C59.2094 68.2443 59.8502 68.806 60.5937 68.806H64.6802C65.5568 68.806 66.2701 68.039 66.2701 67.0909V46.0628C66.2701 45.8574 66.2338 45.6521 66.1613 45.4589L65.2847 43.0432L68.9299 40.9175C69.0397 40.8542 69.1202 40.7504 69.1541 40.6284C69.188 40.5064 69.1726 40.376 69.1113 40.2652ZM61.9176 46.5217V60.8344H22.2616V46.5217L23.2046 43.9249H60.9746L61.9176 46.5217ZM28.8326 28.4709L28.8629 28.3924L28.887 28.3139C28.9535 28.1146 29.1349 27.9818 29.3465 27.9818H55.1954L59.7534 40.543H24.4378L28.8326 28.4709ZM24.6796 50.3868C24.6796 51.0274 24.9344 51.6419 25.3879 52.0949C25.8413 52.5479 26.4564 52.8024 27.0977 52.8024C27.739 52.8024 28.354 52.5479 28.8075 52.0949C29.261 51.6419 29.5157 51.0274 29.5157 50.3868C29.5157 49.7461 29.261 49.1317 28.8075 48.6786C28.354 48.2256 27.739 47.9711 27.0977 47.9711C26.4564 47.9711 25.8413 48.2256 25.3879 48.6786C24.9344 49.1317 24.6796 49.7461 24.6796 50.3868Z" fill="white"/>
<path d="M45.0032 74.9971V84.9971L26.0032 74.9971H45.0032Z" fill="white"/>
<path d="M40.0032 77.9971V67.9971L59.0032 77.9971H40.0032Z" fill="white"/>
<circle cx="44.5005" cy="45.4971" r="43.5" stroke="white" stroke-opacity="0.6" stroke-width="2"/>
</svg>
